<?xml version="1.0" encoding="UTF-8"?>
<!DOCTYPE svg PUBLIC "-//W3C//DTD SVG 1.1//EN" "http://www.w3.org/Graphics/SVG/1.1/DTD/svg11.dtd">
<svg version="1.1" xmlns="http://www.w3.org/2000/svg" xmlns:xlink="http://www.w3.org/1999/xlink" x="0" y="0" width="1200" height="820" viewBox="0, 0, 1200, 820">
  <g id="Background"/>
  <g id="Layer_1">
    <path d="M101.062,450 L151.062,450 L151.062,500 L101.062,500 z" fill="#65A1CF"/>
    <path d="M151.062,450 L201.062,450 L201.062,500 L151.062,500 z" fill="#EBEDED"/>
    <path d="M201.062,450 L251.062,450 L251.062,500 L201.062,500 z" fill="#65A1CF"/>
    <path d="M251.062,450 L301.062,450 L301.062,500 L251.062,500 z" fill="#EBEDED"/>
    <path d="M301.062,450 L351.062,450 L351.062,500 L301.062,500 z" fill="#65A1CF"/>
    <path d="M351.062,450 L401.062,450 L401.062,500 L351.062,500 z" fill="#EBEDED"/>
    <path d="M401.062,450 L451.062,450 L451.062,500 L401.062,500 z" fill="#65A1CF"/>
    <path d="M451.062,450 L501.062,450 L501.062,500 L451.062,500 z" fill="#EBEDED"/>
    <path d="M101.062,350 L151.062,350 L151.062,400 L101.062,400 z" fill="#65A1CF"/>
    <path d="M151.062,350 L201.062,350 L201.062,400 L151.062,400 z" fill="#EBEDED"/>
    <path d="M201.062,350 L251.062,350 L251.062,400 L201.062,400 z" fill="#65A1CF"/>
    <path d="M251.062,350 L301.062,350 L301.062,400 L251.062,400 z" fill="#EBEDED"/>
    <path d="M301.062,350 L351.062,350 L351.062,400 L301.062,400 z" fill="#65A1CF"/>
    <path d="M351.062,350 L401.062,350 L401.062,400 L351.062,400 z" fill="#EBEDED"/>
    <path d="M401.062,350 L451.062,350 L451.062,400 L401.062,400 z" fill="#65A1CF"/>
    <path d="M451.062,350 L501.062,350 L501.062,400 L451.062,400 z" fill="#EBEDED"/>
    <path d="M151.062,400 L201.062,400 L201.062,450 L151.062,450 z" fill="#65A1CF"/>
    <path d="M201.062,400 L251.062,400 L251.062,450 L201.062,450 z" fill="#EBEDED"/>
    <path d="M251.062,400 L301.062,400 L301.062,450 L251.062,450 z" fill="#65A1CF"/>
    <path d="M301.062,400 L351.062,400 L351.062,450 L301.062,450 z" fill="#EBEDED"/>
    <path d="M351.062,400 L401.062,400 L401.062,450 L351.062,450 z" fill="#65A1CF"/>
    <path d="M401.062,400 L451.062,400 L451.062,450 L401.062,450 z" fill="#EBEDED"/>
    <path d="M451.062,400 L501.062,400 L501.062,450 L451.062,450 z" fill="#65A1CF"/>
    <path d="M101.062,400 L151.062,400 L151.062,450 L101.062,450 z" fill="#EBEDED"/>
    <path d="M151.062,300 L201.062,300 L201.062,350 L151.062,350 z" fill="#65A1CF"/>
    <path d="M201.062,300 L251.062,300 L251.062,350 L201.062,350 z" fill="#EBEDED"/>
    <path d="M251.062,300 L301.062,300 L301.062,350 L251.062,350 z" fill="#65A1CF"/>
    <path d="M301.062,300 L351.062,300 L351.062,350 L301.062,350 z" fill="#EBEDED"/>
    <path d="M351.062,300 L401.062,300 L401.062,350 L351.062,350 z" fill="#65A1CF"/>
    <path d="M401.062,300 L451.062,300 L451.062,350 L401.062,350 z" fill="#EBEDED"/>
    <path d="M451.062,300 L501.062,300 L501.062,350 L451.062,350 z" fill="#65A1CF"/>
    <path d="M101.062,300 L151.062,300 L151.062,350 L101.062,350 z" fill="#EBEDED"/>
    <path d="M101.062,250 L151.062,250 L151.062,300 L101.062,300 z" fill="#65A1CF"/>
    <path d="M151.062,250 L201.062,250 L201.062,300 L151.062,300 z" fill="#EBEDED"/>
    <path d="M201.062,250 L251.062,250 L251.062,300 L201.062,300 z" fill="#65A1CF"/>
    <path d="M251.062,250 L301.062,250 L301.062,300 L251.062,300 z" fill="#EBEDED"/>
    <path d="M301.062,250 L351.062,250 L351.062,300 L301.062,300 z" fill="#65A1CF"/>
    <path d="M351.062,250 L401.062,250 L401.062,300 L351.062,300 z" fill="#EBEDED"/>
    <path d="M401.062,250 L451.062,250 L451.062,300 L401.062,300 z" fill="#65A1CF"/>
    <path d="M451.062,250 L501.062,250 L501.062,300 L451.062,300 z" fill="#EBEDED"/>
    <path d="M101.062,150 L151.062,150 L151.062,200 L101.062,200 z" fill="#65A1CF"/>
    <path d="M151.062,150 L201.062,150 L201.062,200 L151.062,200 z" fill="#EBEDED"/>
    <path d="M201.062,150 L251.062,150 L251.062,200 L201.062,200 z" fill="#65A1CF"/>
    <path d="M251.062,150 L301.062,150 L301.062,200 L251.062,200 z" fill="#EBEDED"/>
    <path d="M301.062,150 L351.062,150 L351.062,200 L301.062,200 z" fill="#65A1CF"/>
    <path d="M351.062,150 L401.062,150 L401.062,200 L351.062,200 z" fill="#EBEDED"/>
    <path d="M401.062,150 L451.062,150 L451.062,200 L401.062,200 z" fill="#65A1CF"/>
    <path d="M451.062,150 L501.062,150 L501.062,200 L451.062,200 z" fill="#EBEDED"/>
    <path d="M151.062,200 L201.062,200 L201.062,250 L151.062,250 z" fill="#65A1CF"/>
    <path d="M201.062,200 L251.062,200 L251.062,250 L201.062,250 z" fill="#EBEDED"/>
    <path d="M251.062,200 L301.062,200 L301.062,250 L251.062,250 z" fill="#65A1CF"/>
    <path d="M301.062,200 L351.062,200 L351.062,250 L301.062,250 z" fill="#EBEDED"/>
    <path d="M351.062,200 L401.062,200 L401.062,250 L351.062,250 z" fill="#65A1CF"/>
    <path d="M401.062,200 L451.062,200 L451.062,250 L401.062,250 z" fill="#EBEDED"/>
    <path d="M451.062,200 L501.062,200 L501.062,250 L451.062,250 z" fill="#65A1CF"/>
    <path d="M101.062,200 L151.062,200 L151.062,250 L101.062,250 z" fill="#EBEDED"/>
    <path d="M151.062,100 L201.062,100 L201.062,150 L151.062,150 z" fill="#65A1CF"/>
    <path d="M201.062,100 L251.062,100 L251.062,150 L201.062,150 z" fill="#EBEDED"/>
    <path d="M251.062,100 L301.062,100 L301.062,150 L251.062,150 z" fill="#65A1CF"/>
    <path d="M301.062,100 L351.062,100 L351.062,150 L301.062,150 z" fill="#EBEDED"/>
    <path d="M351.062,100 L401.062,100 L401.062,150 L351.062,150 z" fill="#65A1CF"/>
    <path d="M401.062,100 L451.062,100 L451.062,150 L401.062,150 z" fill="#EBEDED"/>
    <path d="M451.062,100 L501.062,100 L501.062,150 L451.062,150 z" fill="#65A1CF"/>
    <path d="M101.062,100 L151.062,100 L151.062,150 L101.062,150 z" fill="#EBEDED"/>
    <path d="M101.562,100.5 L501.562,100.5 L501.562,500.5 L101.562,500.5 z" fill-opacity="0" stroke="#294270" stroke-width="8"/>
    <text transform="matrix(1, 0, 0, 1, 126.234, 529)">
      <tspan x="-11.242" y="13" font-family="Roboto-Bold" font-size="40" fill="#294270">a</tspan>
    </text>
    <text transform="matrix(1, 0, 0, 1, 176.234, 529)">
      <tspan x="-11.789" y="13" font-family="Roboto-Bold" font-size="40" fill="#294270">b</tspan>
    </text>
    <text transform="matrix(1, 0, 0, 1, 226.195, 529)">
      <tspan x="-10.812" y="13" font-family="Roboto-Bold" font-size="40" fill="#294270">c</tspan>
    </text>
    <text transform="matrix(1, 0, 0, 1, 276.234, 529)">
      <tspan x="-11.789" y="13" font-family="Roboto-Bold" font-size="40" fill="#294270">d</tspan>
    </text>
    <text transform="matrix(1, 0, 0, 1, 326.107, 529)">
      <tspan x="-10.959" y="13" font-family="Roboto-Bold" font-size="40" fill="#294270">e</tspan>
    </text>
    <text transform="matrix(1, 0, 0, 1, 428.945, 529)">
      <tspan x="-11.789" y="13" font-family="Roboto-Bold" font-size="40" fill="#294270">g</tspan>
    </text>
    <text transform="matrix(1, 0, 0, 1, 380.691, 529)">
      <tspan x="-7.473" y="13" font-family="Roboto-Bold" font-size="40" fill="#294270">f</tspan>
    </text>
    <text transform="matrix(1, 0, 0, 1, 476.234, 529)">
      <tspan x="-11.789" y="13" font-family="Roboto-Bold" font-size="40" fill="#294270">h</tspan>
    </text>
    <text transform="matrix(1, 0, 0, 1, 78.097, 477)">
      <tspan x="-11.975" y="13" font-family="Roboto-Bold" font-size="40" fill="#294270">1</tspan>
    </text>
    <text transform="matrix(1, 0, 0, 1, 78.097, 427)">
      <tspan x="-11.975" y="13" font-family="Roboto-Bold" font-size="40" fill="#294270">2</tspan>
    </text>
    <text transform="matrix(1, 0, 0, 1, 78.097, 377)">
      <tspan x="-11.975" y="13" font-family="Roboto-Bold" font-size="40" fill="#294270">3</tspan>
    </text>
    <text transform="matrix(1, 0, 0, 1, 78.097, 327)">
      <tspan x="-11.975" y="13" font-family="Roboto-Bold" font-size="40" fill="#294270">4</tspan>
    </text>
    <text transform="matrix(1, 0, 0, 1, 78.097, 277)">
      <tspan x="-11.975" y="13" font-family="Roboto-Bold" font-size="40" fill="#294270">5</tspan>
    </text>
    <text transform="matrix(1, 0, 0, 1, 78.097, 227)">
      <tspan x="-11.975" y="13" font-family="Roboto-Bold" font-size="40" fill="#294270">6</tspan>
    </text>
    <text transform="matrix(1, 0, 0, 1, 78.097, 177)">
      <tspan x="-11.975" y="13" font-family="Roboto-Bold" font-size="40" fill="#294270">7</tspan>
    </text>
    <text transform="matrix(1, 0, 0, 1, 78.097, 127)">
      <tspan x="-11.975" y="13" font-family="Roboto-Bold" font-size="40" fill="#294270">8</tspan>
    </text>
    <text transform="matrix(1, 0, 0, 1, 176.234, 425)">
      <tspan x="-20.5" y="15.5" font-family="ArialUnicodeMS" font-size="40" fill="#294270">♛</tspan>
    </text>
    <text transform="matrix(1, 0, 0, 1, 226.562, 325)">
      <tspan x="-20.5" y="15.5" font-family="ArialUnicodeMS" font-size="40" fill="#294270">♛</tspan>
    </text>
    <g>
      <text transform="matrix(1, 0, 0, 1, 385.275, 44.829)">
        <tspan x="-20.5" y="15.5" font-family="ArialUnicodeMS" font-size="40" fill="#294270">♛</tspan>
      </text>
      <text transform="matrix(1, 0, 0, 1, 486.203, 47.329)">
        <tspan x="-81.428" y="13" font-family="Roboto-Bold" font-size="40" fill="#294270"> = placed </tspan>
      </text>
      <text transform="matrix(1, 0, 0, 1, 597.424, 44.829)">
        <tspan x="-20.5" y="15.5" font-family="ArialUnicodeMS" font-size="40" fill="#294270">♕</tspan>
      </text>
      <text transform="matrix(1, 0, 0, 1, 726.447, 47.329)">
        <tspan x="-109.523" y="13" font-family="Roboto-Bold" font-size="40" fill="#294270"> = supposed </tspan>
      </text>
    </g>
    <text transform="matrix(1, 0, 0, 1, 326.234, 125)">
      <tspan x="-20.5" y="15.5" font-family="ArialUnicodeMS" font-size="40" fill="#294270">♛</tspan>
    </text>
    <text transform="matrix(1, 0, 0, 1, 276.562, 225)">
      <tspan x="-20.5" y="15.5" font-family="ArialUnicodeMS" font-size="40" fill="#294270">♛</tspan>
    </text>
    <text transform="matrix(1, 0, 0, 1, 126.562, 275)">
      <tspan x="-20.5" y="15.5" font-family="ArialUnicodeMS" font-size="40" fill="#294270">♕</tspan>
    </text>
    <text transform="matrix(1, 0, 0, 1, 476.562, 175)">
      <tspan x="-20.5" y="15.5" font-family="ArialUnicodeMS" font-size="40" fill="#294270">♕</tspan>
    </text>
    <text transform="matrix(1, 0, 0, 1, 426.234, 475)">
      <tspan x="-20.5" y="15.5" font-family="ArialUnicodeMS" font-size="40" fill="#294270">♕</tspan>
    </text>
    <text transform="matrix(1, 0, 0, 1, 376.562, 375)">
      <tspan x="-20.5" y="15.5" font-family="ArialUnicodeMS" font-size="40" fill="#294270">♕</tspan>
    </text>
    <path d="M700.94,450 L750.94,450 L750.94,500 L700.94,500 z" fill="#65A1CF"/>
    <path d="M750.94,450 L800.94,450 L800.94,500 L750.94,500 z" fill="#EBEDED"/>
    <path d="M800.94,450 L850.94,450 L850.94,500 L800.94,500 z" fill="#65A1CF"/>
    <path d="M850.94,450 L900.94,450 L900.94,500 L850.94,500 z" fill="#EBEDED"/>
    <path d="M900.94,450 L950.94,450 L950.94,500 L900.94,500 z" fill="#65A1CF"/>
    <path d="M950.94,450 L1000.94,450 L1000.94,500 L950.94,500 z" fill="#EBEDED"/>
    <path d="M1000.94,450 L1050.941,450 L1050.941,500 L1000.94,500 z" fill="#65A1CF"/>
    <path d="M1050.941,450 L1100.941,450 L1100.941,500 L1050.941,500 z" fill="#EBEDED"/>
    <path d="M700.94,350 L750.94,350 L750.94,400 L700.94,400 z" fill="#65A1CF"/>
    <path d="M750.94,350 L800.94,350 L800.94,400 L750.94,400 z" fill="#EBEDED"/>
    <path d="M800.94,350 L850.94,350 L850.94,400 L800.94,400 z" fill="#65A1CF"/>
    <path d="M850.94,350 L900.94,350 L900.94,400 L850.94,400 z" fill="#EBEDED"/>
    <path d="M900.94,350 L950.94,350 L950.94,400 L900.94,400 z" fill="#65A1CF"/>
    <path d="M950.94,350 L1000.94,350 L1000.94,400 L950.94,400 z" fill="#EBEDED"/>
    <path d="M1000.94,350 L1050.941,350 L1050.941,400 L1000.94,400 z" fill="#65A1CF"/>
    <path d="M1050.941,350 L1100.941,350 L1100.941,400 L1050.941,400 z" fill="#EBEDED"/>
    <path d="M750.94,400 L800.94,400 L800.94,450 L750.94,450 z" fill="#65A1CF"/>
    <path d="M800.94,400 L850.94,400 L850.94,450 L800.94,450 z" fill="#EBEDED"/>
    <path d="M850.94,400 L900.94,400 L900.94,450 L850.94,450 z" fill="#65A1CF"/>
    <path d="M900.94,400 L950.94,400 L950.94,450 L900.94,450 z" fill="#EBEDED"/>
    <path d="M950.94,400 L1000.94,400 L1000.94,450 L950.94,450 z" fill="#65A1CF"/>
    <path d="M1000.94,400 L1050.941,400 L1050.941,450 L1000.94,450 z" fill="#EBEDED"/>
    <path d="M1050.941,400 L1100.941,400 L1100.941,450 L1050.941,450 z" fill="#65A1CF"/>
    <path d="M700.94,400 L750.94,400 L750.94,450 L700.94,450 z" fill="#EBEDED"/>
    <path d="M750.94,300 L800.94,300 L800.94,350 L750.94,350 z" fill="#65A1CF"/>
    <path d="M800.94,300 L850.94,300 L850.94,350 L800.94,350 z" fill="#EBEDED"/>
    <path d="M850.94,300 L900.94,300 L900.94,350 L850.94,350 z" fill="#65A1CF"/>
    <path d="M900.94,300 L950.94,300 L950.94,350 L900.94,350 z" fill="#EBEDED"/>
    <path d="M950.94,300 L1000.94,300 L1000.94,350 L950.94,350 z" fill="#65A1CF"/>
    <path d="M1000.94,300 L1050.941,300 L1050.941,350 L1000.94,350 z" fill="#EBEDED"/>
    <path d="M1050.941,300 L1100.941,300 L1100.941,350 L1050.941,350 z" fill="#65A1CF"/>
    <path d="M700.94,300 L750.94,300 L750.94,350 L700.94,350 z" fill="#EBEDED"/>
    <path d="M700.94,250 L750.94,250 L750.94,300 L700.94,300 z" fill="#65A1CF"/>
    <path d="M750.94,250 L800.94,250 L800.94,300 L750.94,300 z" fill="#EBEDED"/>
    <path d="M800.94,250 L850.94,250 L850.94,300 L800.94,300 z" fill="#65A1CF"/>
    <path d="M850.94,250 L900.94,250 L900.94,300 L850.94,300 z" fill="#EBEDED"/>
    <path d="M900.94,250 L950.94,250 L950.94,300 L900.94,300 z" fill="#65A1CF"/>
    <path d="M950.94,250 L1000.94,250 L1000.94,300 L950.94,300 z" fill="#EBEDED"/>
    <path d="M1000.94,250 L1050.941,250 L1050.941,300 L1000.94,300 z" fill="#65A1CF"/>
    <path d="M1050.941,250 L1100.941,250 L1100.941,300 L1050.941,300 z" fill="#EBEDED"/>
    <path d="M700.94,150 L750.94,150 L750.94,200 L700.94,200 z" fill="#65A1CF"/>
    <path d="M750.94,150 L800.94,150 L800.94,200 L750.94,200 z" fill="#EBEDED"/>
    <path d="M800.94,150 L850.94,150 L850.94,200 L800.94,200 z" fill="#65A1CF"/>
    <path d="M850.94,150 L900.94,150 L900.94,200 L850.94,200 z" fill="#EBEDED"/>
    <path d="M900.94,150 L950.94,150 L950.94,200 L900.94,200 z" fill="#65A1CF"/>
    <path d="M950.94,150 L1000.94,150 L1000.94,200 L950.94,200 z" fill="#EBEDED"/>
    <path d="M1000.94,150 L1050.941,150 L1050.941,200 L1000.94,200 z" fill="#65A1CF"/>
    <path d="M1050.941,150 L1100.941,150 L1100.941,200 L1050.941,200 z" fill="#EBEDED"/>
    <path d="M750.94,200 L800.94,200 L800.94,250 L750.94,250 z" fill="#65A1CF"/>
    <path d="M800.94,200 L850.94,200 L850.94,250 L800.94,250 z" fill="#EBEDED"/>
    <path d="M850.94,200 L900.94,200 L900.94,250 L850.94,250 z" fill="#65A1CF"/>
    <path d="M900.94,200 L950.94,200 L950.94,250 L900.94,250 z" fill="#EBEDED"/>
    <path d="M950.94,200 L1000.94,200 L1000.94,250 L950.94,250 z" fill="#65A1CF"/>
    <path d="M1000.94,200 L1050.941,200 L1050.941,250 L1000.94,250 z" fill="#EBEDED"/>
    <path d="M1050.941,200 L1100.941,200 L1100.941,250 L1050.941,250 z" fill="#65A1CF"/>
    <path d="M700.94,200 L750.94,200 L750.94,250 L700.94,250 z" fill="#EBEDED"/>
    <path d="M750.94,100 L800.94,100 L800.94,150 L750.94,150 z" fill="#65A1CF"/>
    <path d="M800.94,100 L850.94,100 L850.94,150 L800.94,150 z" fill="#EBEDED"/>
    <path d="M850.94,100 L900.94,100 L900.94,150 L850.94,150 z" fill="#65A1CF"/>
    <path d="M900.94,100 L950.94,100 L950.94,150 L900.94,150 z" fill="#EBEDED"/>
    <path d="M950.94,100 L1000.94,100 L1000.94,150 L950.94,150 z" fill="#65A1CF"/>
    <path d="M1000.94,100 L1050.941,100 L1050.941,150 L1000.94,150 z" fill="#EBEDED"/>
    <path d="M1050.941,100 L1100.941,100 L1100.941,150 L1050.941,150 z" fill="#65A1CF"/>
    <path d="M700.94,100 L750.94,100 L750.94,150 L700.94,150 z" fill="#EBEDED"/>
    <path d="M701.44,100.5 L1101.441,100.5 L1101.441,500.5 L701.44,500.5 z" fill-opacity="0" stroke="#294270" stroke-width="8"/>
    <text transform="matrix(1, 0, 0, 1, 726.112, 529)">
      <tspan x="-11.242" y="13" font-family="Roboto-Bold" font-size="40" fill="#294270">a</tspan>
    </text>
    <text transform="matrix(1, 0, 0, 1, 776.112, 529)">
      <tspan x="-11.789" y="13" font-family="Roboto-Bold" font-size="40" fill="#294270">b</tspan>
    </text>
    <text transform="matrix(1, 0, 0, 1, 826.073, 529)">
      <tspan x="-10.812" y="13" font-family="Roboto-Bold" font-size="40" fill="#294270">c</tspan>
    </text>
    <text transform="matrix(1, 0, 0, 1, 876.112, 529)">
      <tspan x="-11.789" y="13" font-family="Roboto-Bold" font-size="40" fill="#294270">d</tspan>
    </text>
    <text transform="matrix(1, 0, 0, 1, 925.985, 529)">
      <tspan x="-10.959" y="13" font-family="Roboto-Bold" font-size="40" fill="#294270">e</tspan>
    </text>
    <text transform="matrix(1, 0, 0, 1, 1028.823, 529)">
      <tspan x="-11.789" y="13" font-family="Roboto-Bold" font-size="40" fill="#294270">g</tspan>
    </text>
    <text transform="matrix(1, 0, 0, 1, 980.57, 529)">
      <tspan x="-7.473" y="13" font-family="Roboto-Bold" font-size="40" fill="#294270">f</tspan>
    </text>
    <text transform="matrix(1, 0, 0, 1, 1076.112, 529)">
      <tspan x="-11.789" y="13" font-family="Roboto-Bold" font-size="40" fill="#294270">h</tspan>
    </text>
    <text transform="matrix(1, 0, 0, 1, 677.976, 477)">
      <tspan x="-11.975" y="13" font-family="Roboto-Bold" font-size="40" fill="#294270">1</tspan>
    </text>
    <text transform="matrix(1, 0, 0, 1, 677.976, 427)">
      <tspan x="-11.975" y="13" font-family="Roboto-Bold" font-size="40" fill="#294270">2</tspan>
    </text>
    <text transform="matrix(1, 0, 0, 1, 677.976, 377)">
      <tspan x="-11.975" y="13" font-family="Roboto-Bold" font-size="40" fill="#294270">3</tspan>
    </text>
    <text transform="matrix(1, 0, 0, 1, 677.976, 327)">
      <tspan x="-11.975" y="13" font-family="Roboto-Bold" font-size="40" fill="#294270">4</tspan>
    </text>
    <text transform="matrix(1, 0, 0, 1, 677.976, 277)">
      <tspan x="-11.975" y="13" font-family="Roboto-Bold" font-size="40" fill="#294270">5</tspan>
    </text>
    <text transform="matrix(1, 0, 0, 1, 677.976, 227)">
      <tspan x="-11.975" y="13" font-family="Roboto-Bold" font-size="40" fill="#294270">6</tspan>
    </text>
    <text transform="matrix(1, 0, 0, 1, 677.976, 177)">
      <tspan x="-11.975" y="13" font-family="Roboto-Bold" font-size="40" fill="#294270">7</tspan>
    </text>
    <text transform="matrix(1, 0, 0, 1, 677.976, 127)">
      <tspan x="-11.975" y="13" font-family="Roboto-Bold" font-size="40" fill="#294270">8</tspan>
    </text>
    <text transform="matrix(1, 0, 0, 1, 776.112, 425)">
      <tspan x="-20.5" y="15.5" font-family="ArialUnicodeMS" font-size="40" fill="#294270">♛</tspan>
    </text>
    <text transform="matrix(1, 0, 0, 1, 826.441, 325)">
      <tspan x="-20.5" y="15.5" font-family="ArialUnicodeMS" font-size="40" fill="#294270">♛</tspan>
    </text>
    <text transform="matrix(1, 0, 0, 1, 926.112, 125)">
      <tspan x="-20.5" y="15.5" font-family="ArialUnicodeMS" font-size="40" fill="#294270">♛</tspan>
    </text>
    <text transform="matrix(1, 0, 0, 1, 876.441, 225)">
      <tspan x="-20.5" y="15.5" font-family="ArialUnicodeMS" font-size="40" fill="#294270">♛</tspan>
    </text>
    <g>
      <text transform="matrix(1, 0, 0, 1, 301.396, 580.09)">
        <tspan x="-65.617" y="13" font-family="Roboto-Bold" font-size="40" fill="#294270">placed:</tspan>
      </text>
      <text transform="matrix(1, 0, 0, 1, 316.113, 633.09)">
        <tspan x="-196.633" y="13" font-family="Roboto-Bold" font-size="40" fill="#294270">{"b1", "c4", "d6", "e8"}</tspan>
      </text>
    </g>
    <g>
      <text transform="matrix(1, 0, 0, 1, 301.435, 687.09)">
        <tspan x="-93.713" y="13" font-family="Roboto-Bold" font-size="40" fill="#294270">supposed:</tspan>
      </text>
      <text transform="matrix(1, 0, 0, 1, 316.112, 740.09)">
        <tspan x="-195.188" y="13" font-family="Roboto-Bold" font-size="40" fill="#294270">{"b1", "c4", "d6", "e8",</tspan>
      </text>
      <text transform="matrix(1, 0, 0, 1, 315.762, 793.09)">
        <tspan x="-187.639" y="13" font-family="Roboto-Bold" font-size="40" fill="#294270">"a5", "g1", "f3", "h7"}</tspan>
      </text>
    </g>
    <text transform="matrix(1, 0, 0, 1, 976.44, 275)">
      <tspan x="-20.5" y="15.5" font-family="ArialUnicodeMS" font-size="40" fill="#294270">♛</tspan>
    </text>
    <text transform="matrix(1, 0, 0, 1, 726.44, 175)">
      <tspan x="-20.5" y="15.5" font-family="ArialUnicodeMS" font-size="40" fill="#294270">♛</tspan>
    </text>
    <text transform="matrix(1, 0, 0, 1, 914.473, 580.09)">
      <tspan x="-71.721" y="13" font-family="Roboto-Bold" font-size="40" fill="#294270">placed:</tspan>
    </text>
    <text transform="matrix(1, 0, 0, 1, 918.777, 633.09)">
      <tspan x="-151.512" y="13" font-family="Roboto-Bold" font-size="40" fill="#294270">{"b1", "c4", "d6",</tspan>
    </text>
    <text transform="matrix(1, 0, 0, 1, 918.466, 686.09)">
      <tspan x="-141.605" y="13" font-family="Roboto-Bold" font-size="40" fill="#294270">"e8", "a7", "f5"}</tspan>
    </text>
    <text transform="matrix(1, 0, 0, 1, 915.89, 740.09)">
      <tspan x="-148.807" y="13" font-family="Roboto-Bold" font-size="40" fill="#294270">It's impossible:</tspan>
    </text>
    <text transform="matrix(1, 0, 0, 1, 914.752, 793.09)">
      <tspan x="-15.49" y="13" font-family="Roboto-Bold" font-size="40" fill="#294270">{}</tspan>
    </text>
  </g>
</svg>
