<?xml version="1.0" encoding="UTF-8"?>
<!DOCTYPE svg PUBLIC "-//W3C//DTD SVG 1.1//EN" "http://www.w3.org/Graphics/SVG/1.1/DTD/svg11.dtd">
<svg version="1.1" xmlns="http://www.w3.org/2000/svg" xmlns:xlink="http://www.w3.org/1999/xlink" x="0" y="0" width="1200" height="820" viewBox="0, 0, 1200, 820">
  <g id="Background">
    <rect x="0" y="0" width="1200" height="820" fill="#000000" fill-opacity="0"/>
  </g>
  <g id="Layer_1">
    <path d="M101.062,450 L151.062,450 L151.062,500 L101.062,500 z" fill="#65A1CF"/>
    <path d="M151.062,450 L201.062,450 L201.062,500 L151.062,500 z" fill="#EBEDED"/>
    <path d="M201.062,450 L251.062,450 L251.062,500 L201.062,500 z" fill="#65A1CF"/>
    <path d="M251.062,450 L301.062,450 L301.062,500 L251.062,500 z" fill="#EBEDED"/>
    <path d="M301.062,450 L351.062,450 L351.062,500 L301.062,500 z" fill="#65A1CF"/>
    <path d="M351.062,450 L401.062,450 L401.062,500 L351.062,500 z" fill="#EBEDED"/>
    <path d="M401.062,450 L451.062,450 L451.062,500 L401.062,500 z" fill="#65A1CF"/>
    <path d="M451.062,450 L501.062,450 L501.062,500 L451.062,500 z" fill="#EBEDED"/>
    <path d="M101.062,350 L151.062,350 L151.062,400 L101.062,400 z" fill="#65A1CF"/>
    <path d="M151.062,350 L201.062,350 L201.062,400 L151.062,400 z" fill="#EBEDED"/>
    <path d="M201.062,350 L251.062,350 L251.062,400 L201.062,400 z" fill="#65A1CF"/>
    <path d="M251.062,350 L301.062,350 L301.062,400 L251.062,400 z" fill="#EBEDED"/>
    <path d="M301.062,350 L351.062,350 L351.062,400 L301.062,400 z" fill="#65A1CF"/>
    <path d="M351.062,350 L401.062,350 L401.062,400 L351.062,400 z" fill="#EBEDED"/>
    <path d="M401.062,350 L451.062,350 L451.062,400 L401.062,400 z" fill="#65A1CF"/>
    <path d="M451.062,350 L501.062,350 L501.062,400 L451.062,400 z" fill="#EBEDED"/>
    <path d="M151.062,400 L201.062,400 L201.062,450 L151.062,450 z" fill="#65A1CF"/>
    <path d="M201.062,400 L251.062,400 L251.062,450 L201.062,450 z" fill="#EBEDED"/>
    <path d="M251.062,400 L301.062,400 L301.062,450 L251.062,450 z" fill="#65A1CF"/>
    <path d="M301.062,400 L351.062,400 L351.062,450 L301.062,450 z" fill="#EBEDED"/>
    <path d="M351.062,400 L401.062,400 L401.062,450 L351.062,450 z" fill="#65A1CF"/>
    <path d="M401.062,400 L451.062,400 L451.062,450 L401.062,450 z" fill="#EBEDED"/>
    <path d="M451.062,400 L501.062,400 L501.062,450 L451.062,450 z" fill="#65A1CF"/>
    <path d="M101.062,400 L151.062,400 L151.062,450 L101.062,450 z" fill="#EBEDED"/>
    <path d="M151.062,300 L201.062,300 L201.062,350 L151.062,350 z" fill="#65A1CF"/>
    <path d="M201.062,300 L251.062,300 L251.062,350 L201.062,350 z" fill="#EBEDED"/>
    <path d="M251.062,300 L301.062,300 L301.062,350 L251.062,350 z" fill="#65A1CF"/>
    <path d="M301.062,300 L351.062,300 L351.062,350 L301.062,350 z" fill="#EBEDED"/>
    <path d="M351.062,300 L401.062,300 L401.062,350 L351.062,350 z" fill="#65A1CF"/>
    <path d="M401.062,300 L451.062,300 L451.062,350 L401.062,350 z" fill="#EBEDED"/>
    <path d="M451.062,300 L501.062,300 L501.062,350 L451.062,350 z" fill="#65A1CF"/>
    <path d="M101.062,300 L151.062,300 L151.062,350 L101.062,350 z" fill="#EBEDED"/>
    <path d="M101.062,250 L151.062,250 L151.062,300 L101.062,300 z" fill="#65A1CF"/>
    <path d="M151.062,250 L201.062,250 L201.062,300 L151.062,300 z" fill="#EBEDED"/>
    <path d="M201.062,250 L251.062,250 L251.062,300 L201.062,300 z" fill="#65A1CF"/>
    <path d="M251.062,250 L301.062,250 L301.062,300 L251.062,300 z" fill="#EBEDED"/>
    <path d="M301.062,250 L351.062,250 L351.062,300 L301.062,300 z" fill="#65A1CF"/>
    <path d="M351.062,250 L401.062,250 L401.062,300 L351.062,300 z" fill="#EBEDED"/>
    <path d="M401.062,250 L451.062,250 L451.062,300 L401.062,300 z" fill="#65A1CF"/>
    <path d="M451.062,250 L501.062,250 L501.062,300 L451.062,300 z" fill="#EBEDED"/>
    <path d="M101.062,150 L151.062,150 L151.062,200 L101.062,200 z" fill="#65A1CF"/>
    <path d="M151.062,150 L201.062,150 L201.062,200 L151.062,200 z" fill="#EBEDED"/>
    <path d="M201.062,150 L251.062,150 L251.062,200 L201.062,200 z" fill="#65A1CF"/>
    <path d="M251.062,150 L301.062,150 L301.062,200 L251.062,200 z" fill="#EBEDED"/>
    <path d="M301.062,150 L351.062,150 L351.062,200 L301.062,200 z" fill="#65A1CF"/>
    <path d="M351.062,150 L401.062,150 L401.062,200 L351.062,200 z" fill="#EBEDED"/>
    <path d="M401.062,150 L451.062,150 L451.062,200 L401.062,200 z" fill="#65A1CF"/>
    <path d="M451.062,150 L501.062,150 L501.062,200 L451.062,200 z" fill="#EBEDED"/>
    <path d="M151.062,200 L201.062,200 L201.062,250 L151.062,250 z" fill="#65A1CF"/>
    <path d="M201.062,200 L251.062,200 L251.062,250 L201.062,250 z" fill="#EBEDED"/>
    <path d="M251.062,200 L301.062,200 L301.062,250 L251.062,250 z" fill="#65A1CF"/>
    <path d="M301.062,200 L351.062,200 L351.062,250 L301.062,250 z" fill="#EBEDED"/>
    <path d="M351.062,200 L401.062,200 L401.062,250 L351.062,250 z" fill="#65A1CF"/>
    <path d="M401.062,200 L451.062,200 L451.062,250 L401.062,250 z" fill="#EBEDED"/>
    <path d="M451.062,200 L501.062,200 L501.062,250 L451.062,250 z" fill="#65A1CF"/>
    <path d="M101.062,200 L151.062,200 L151.062,250 L101.062,250 z" fill="#EBEDED"/>
    <path d="M151.062,100 L201.062,100 L201.062,150 L151.062,150 z" fill="#65A1CF"/>
    <path d="M201.062,100 L251.062,100 L251.062,150 L201.062,150 z" fill="#EBEDED"/>
    <path d="M251.062,100 L301.062,100 L301.062,150 L251.062,150 z" fill="#65A1CF"/>
    <path d="M301.062,100 L351.062,100 L351.062,150 L301.062,150 z" fill="#EBEDED"/>
    <path d="M351.062,100 L401.062,100 L401.062,150 L351.062,150 z" fill="#65A1CF"/>
    <path d="M401.062,100 L451.062,100 L451.062,150 L401.062,150 z" fill="#EBEDED"/>
    <path d="M451.062,100 L501.062,100 L501.062,150 L451.062,150 z" fill="#65A1CF"/>
    <path d="M101.062,100 L151.062,100 L151.062,150 L101.062,150 z" fill="#EBEDED"/>
    <path d="M101.562,100.5 L501.562,100.5 L501.562,500.5 L101.562,500.5 z" fill-opacity="0" stroke="#294270" stroke-width="8"/>
    <text transform="matrix(1, 0, 0, 1, 125.734, 532)">
      <tspan x="-10.742" y="10" font-family="Roboto-Bold" font-size="40" fill="#294270">a</tspan>
    </text>
    <text transform="matrix(1, 0, 0, 1, 175.734, 532)">
      <tspan x="-11.289" y="10" font-family="Roboto-Bold" font-size="40" fill="#294270">b</tspan>
    </text>
    <text transform="matrix(1, 0, 0, 1, 225.734, 532)">
      <tspan x="-10.352" y="10" font-family="Roboto-Bold" font-size="40" fill="#294270">c</tspan>
    </text>
    <text transform="matrix(1, 0, 0, 1, 275.734, 532)">
      <tspan x="-11.289" y="10" font-family="Roboto-Bold" font-size="40" fill="#294270">d</tspan>
    </text>
    <text transform="matrix(1, 0, 0, 1, 325.734, 532)">
      <tspan x="-10.586" y="10" font-family="Roboto-Bold" font-size="40" fill="#294270">e</tspan>
    </text>
    <text transform="matrix(1, 0, 0, 1, 425.734, 532)">
      <tspan x="-7.148" y="10" font-family="Roboto-Bold" font-size="40" fill="#294270">f</tspan>
    </text>
    <text transform="matrix(1, 0, 0, 1, 380.366, 532)">
      <tspan x="-11.289" y="10" font-family="Roboto-Bold" font-size="40" fill="#294270">g</tspan>
    </text>
    <text transform="matrix(1, 0, 0, 1, 475.734, 532)">
      <tspan x="-11.289" y="10" font-family="Roboto-Bold" font-size="40" fill="#294270">h</tspan>
    </text>
    <text transform="matrix(1, 0, 0, 1, 77.597, 475)">
      <tspan x="-11.475" y="15" font-family="Roboto-Bold" font-size="40" fill="#294270">1</tspan>
    </text>
    <text transform="matrix(1, 0, 0, 1, 77.597, 425)">
      <tspan x="-11.475" y="15" font-family="Roboto-Bold" font-size="40" fill="#294270">2</tspan>
    </text>
    <text transform="matrix(1, 0, 0, 1, 77.597, 375)">
      <tspan x="-11.475" y="15" font-family="Roboto-Bold" font-size="40" fill="#294270">3</tspan>
    </text>
    <text transform="matrix(1, 0, 0, 1, 77.597, 325)">
      <tspan x="-11.475" y="15" font-family="Roboto-Bold" font-size="40" fill="#294270">4</tspan>
    </text>
    <text transform="matrix(1, 0, 0, 1, 77.597, 275)">
      <tspan x="-11.475" y="15" font-family="Roboto-Bold" font-size="40" fill="#294270">5</tspan>
    </text>
    <text transform="matrix(1, 0, 0, 1, 77.597, 225)">
      <tspan x="-11.475" y="15" font-family="Roboto-Bold" font-size="40" fill="#294270">6</tspan>
    </text>
    <text transform="matrix(1, 0, 0, 1, 77.597, 175)">
      <tspan x="-11.475" y="15" font-family="Roboto-Bold" font-size="40" fill="#294270">7</tspan>
    </text>
    <text transform="matrix(1, 0, 0, 1, 77.597, 125)">
      <tspan x="-11.475" y="15" font-family="Roboto-Bold" font-size="40" fill="#294270">8</tspan>
    </text>
    <text transform="matrix(1, 0, 0, 1, 175.734, 425)">
      <tspan x="-20" y="15.5" font-family="ArialUnicodeMS" font-size="40" fill="#294270">♛</tspan>
    </text>
    <text transform="matrix(1, 0, 0, 1, 226.062, 325)">
      <tspan x="-20" y="15.5" font-family="ArialUnicodeMS" font-size="40" fill="#294270">♛</tspan>
    </text>
    <text transform="matrix(1, 0, 0, 1, 600, 47.329)">
      <tspan x="-235.225" y="13" font-family="ArialUnicodeMS" font-size="40" fill="#294270">♛</tspan>
      <tspan x="-195.225" y="13" font-family="Roboto-Bold" font-size="40" fill="#294270"> = placed </tspan>
      <tspan x="-23.076" y="13" font-family="ArialUnicodeMS" font-size="40" fill="#294270">♕</tspan>
      <tspan x="16.924" y="13" font-family="Roboto-Bold" font-size="40" fill="#294270"> = supposed </tspan>
    </text>
    <text transform="matrix(1, 0, 0, 1, 325.734, 125)">
      <tspan x="-20" y="15.5" font-family="ArialUnicodeMS" font-size="40" fill="#294270">♛</tspan>
    </text>
    <text transform="matrix(1, 0, 0, 1, 276.062, 225)">
      <tspan x="-20" y="15.5" font-family="ArialUnicodeMS" font-size="40" fill="#294270">♛</tspan>
    </text>
    <text transform="matrix(1, 0, 0, 1, 126.062, 275)">
      <tspan x="-20" y="15.5" font-family="ArialUnicodeMS" font-size="40" fill="#294270">♕</tspan>
    </text>
    <text transform="matrix(1, 0, 0, 1, 476.062, 175)">
      <tspan x="-20" y="15.5" font-family="ArialUnicodeMS" font-size="40" fill="#294270">♕</tspan>
    </text>
    <text transform="matrix(1, 0, 0, 1, 425.734, 475)">
      <tspan x="-20" y="15.5" font-family="ArialUnicodeMS" font-size="40" fill="#294270">♕</tspan>
    </text>
    <text transform="matrix(1, 0, 0, 1, 376.062, 375)">
      <tspan x="-20" y="15.5" font-family="ArialUnicodeMS" font-size="40" fill="#294270">♕</tspan>
    </text>
    <path d="M700.94,450 L750.94,450 L750.94,500 L700.94,500 z" fill="#65A1CF"/>
    <path d="M750.94,450 L800.94,450 L800.94,500 L750.94,500 z" fill="#EBEDED"/>
    <path d="M800.94,450 L850.94,450 L850.94,500 L800.94,500 z" fill="#65A1CF"/>
    <path d="M850.94,450 L900.94,450 L900.94,500 L850.94,500 z" fill="#EBEDED"/>
    <path d="M900.94,450 L950.94,450 L950.94,500 L900.94,500 z" fill="#65A1CF"/>
    <path d="M950.94,450 L1000.94,450 L1000.94,500 L950.94,500 z" fill="#EBEDED"/>
    <path d="M1000.94,450 L1050.941,450 L1050.941,500 L1000.94,500 z" fill="#65A1CF"/>
    <path d="M1050.941,450 L1100.941,450 L1100.941,500 L1050.941,500 z" fill="#EBEDED"/>
    <path d="M700.94,350 L750.94,350 L750.94,400 L700.94,400 z" fill="#65A1CF"/>
    <path d="M750.94,350 L800.94,350 L800.94,400 L750.94,400 z" fill="#EBEDED"/>
    <path d="M800.94,350 L850.94,350 L850.94,400 L800.94,400 z" fill="#65A1CF"/>
    <path d="M850.94,350 L900.94,350 L900.94,400 L850.94,400 z" fill="#EBEDED"/>
    <path d="M900.94,350 L950.94,350 L950.94,400 L900.94,400 z" fill="#65A1CF"/>
    <path d="M950.94,350 L1000.94,350 L1000.94,400 L950.94,400 z" fill="#EBEDED"/>
    <path d="M1000.94,350 L1050.941,350 L1050.941,400 L1000.94,400 z" fill="#65A1CF"/>
    <path d="M1050.941,350 L1100.941,350 L1100.941,400 L1050.941,400 z" fill="#EBEDED"/>
    <path d="M750.94,400 L800.94,400 L800.94,450 L750.94,450 z" fill="#65A1CF"/>
    <path d="M800.94,400 L850.94,400 L850.94,450 L800.94,450 z" fill="#EBEDED"/>
    <path d="M850.94,400 L900.94,400 L900.94,450 L850.94,450 z" fill="#65A1CF"/>
    <path d="M900.94,400 L950.94,400 L950.94,450 L900.94,450 z" fill="#EBEDED"/>
    <path d="M950.94,400 L1000.94,400 L1000.94,450 L950.94,450 z" fill="#65A1CF"/>
    <path d="M1000.94,400 L1050.941,400 L1050.941,450 L1000.94,450 z" fill="#EBEDED"/>
    <path d="M1050.941,400 L1100.941,400 L1100.941,450 L1050.941,450 z" fill="#65A1CF"/>
    <path d="M700.94,400 L750.94,400 L750.94,450 L700.94,450 z" fill="#EBEDED"/>
    <path d="M750.94,300 L800.94,300 L800.94,350 L750.94,350 z" fill="#65A1CF"/>
    <path d="M800.94,300 L850.94,300 L850.94,350 L800.94,350 z" fill="#EBEDED"/>
    <path d="M850.94,300 L900.94,300 L900.94,350 L850.94,350 z" fill="#65A1CF"/>
    <path d="M900.94,300 L950.94,300 L950.94,350 L900.94,350 z" fill="#EBEDED"/>
    <path d="M950.94,300 L1000.94,300 L1000.94,350 L950.94,350 z" fill="#65A1CF"/>
    <path d="M1000.94,300 L1050.941,300 L1050.941,350 L1000.94,350 z" fill="#EBEDED"/>
    <path d="M1050.941,300 L1100.941,300 L1100.941,350 L1050.941,350 z" fill="#65A1CF"/>
    <path d="M700.94,300 L750.94,300 L750.94,350 L700.94,350 z" fill="#EBEDED"/>
    <path d="M700.94,250 L750.94,250 L750.94,300 L700.94,300 z" fill="#65A1CF"/>
    <path d="M750.94,250 L800.94,250 L800.94,300 L750.94,300 z" fill="#EBEDED"/>
    <path d="M800.94,250 L850.94,250 L850.94,300 L800.94,300 z" fill="#65A1CF"/>
    <path d="M850.94,250 L900.94,250 L900.94,300 L850.94,300 z" fill="#EBEDED"/>
    <path d="M900.94,250 L950.94,250 L950.94,300 L900.94,300 z" fill="#65A1CF"/>
    <path d="M950.94,250 L1000.94,250 L1000.94,300 L950.94,300 z" fill="#EBEDED"/>
    <path d="M1000.94,250 L1050.941,250 L1050.941,300 L1000.94,300 z" fill="#65A1CF"/>
    <path d="M1050.941,250 L1100.941,250 L1100.941,300 L1050.941,300 z" fill="#EBEDED"/>
    <path d="M700.94,150 L750.94,150 L750.94,200 L700.94,200 z" fill="#65A1CF"/>
    <path d="M750.94,150 L800.94,150 L800.94,200 L750.94,200 z" fill="#EBEDED"/>
    <path d="M800.94,150 L850.94,150 L850.94,200 L800.94,200 z" fill="#65A1CF"/>
    <path d="M850.94,150 L900.94,150 L900.94,200 L850.94,200 z" fill="#EBEDED"/>
    <path d="M900.94,150 L950.94,150 L950.94,200 L900.94,200 z" fill="#65A1CF"/>
    <path d="M950.94,150 L1000.94,150 L1000.94,200 L950.94,200 z" fill="#EBEDED"/>
    <path d="M1000.94,150 L1050.941,150 L1050.941,200 L1000.94,200 z" fill="#65A1CF"/>
    <path d="M1050.941,150 L1100.941,150 L1100.941,200 L1050.941,200 z" fill="#EBEDED"/>
    <path d="M750.94,200 L800.94,200 L800.94,250 L750.94,250 z" fill="#65A1CF"/>
    <path d="M800.94,200 L850.94,200 L850.94,250 L800.94,250 z" fill="#EBEDED"/>
    <path d="M850.94,200 L900.94,200 L900.94,250 L850.94,250 z" fill="#65A1CF"/>
    <path d="M900.94,200 L950.94,200 L950.94,250 L900.94,250 z" fill="#EBEDED"/>
    <path d="M950.94,200 L1000.94,200 L1000.94,250 L950.94,250 z" fill="#65A1CF"/>
    <path d="M1000.94,200 L1050.941,200 L1050.941,250 L1000.94,250 z" fill="#EBEDED"/>
    <path d="M1050.941,200 L1100.941,200 L1100.941,250 L1050.941,250 z" fill="#65A1CF"/>
    <path d="M700.94,200 L750.94,200 L750.94,250 L700.94,250 z" fill="#EBEDED"/>
    <path d="M750.94,100 L800.94,100 L800.94,150 L750.94,150 z" fill="#65A1CF"/>
    <path d="M800.94,100 L850.94,100 L850.94,150 L800.94,150 z" fill="#EBEDED"/>
    <path d="M850.94,100 L900.94,100 L900.94,150 L850.94,150 z" fill="#65A1CF"/>
    <path d="M900.94,100 L950.94,100 L950.94,150 L900.94,150 z" fill="#EBEDED"/>
    <path d="M950.94,100 L1000.94,100 L1000.94,150 L950.94,150 z" fill="#65A1CF"/>
    <path d="M1000.94,100 L1050.941,100 L1050.941,150 L1000.94,150 z" fill="#EBEDED"/>
    <path d="M1050.941,100 L1100.941,100 L1100.941,150 L1050.941,150 z" fill="#65A1CF"/>
    <path d="M700.94,100 L750.94,100 L750.94,150 L700.94,150 z" fill="#EBEDED"/>
    <path d="M701.44,100.5 L1101.441,100.5 L1101.441,500.5 L701.44,500.5 z" fill-opacity="0" stroke="#294270" stroke-width="8"/>
    <text transform="matrix(1, 0, 0, 1, 725.612, 532)">
      <tspan x="-10.742" y="10" font-family="Roboto-Bold" font-size="40" fill="#294270">a</tspan>
    </text>
    <text transform="matrix(1, 0, 0, 1, 775.612, 532)">
      <tspan x="-11.289" y="10" font-family="Roboto-Bold" font-size="40" fill="#294270">b</tspan>
    </text>
    <text transform="matrix(1, 0, 0, 1, 825.612, 532)">
      <tspan x="-10.352" y="10" font-family="Roboto-Bold" font-size="40" fill="#294270">c</tspan>
    </text>
    <text transform="matrix(1, 0, 0, 1, 875.612, 532)">
      <tspan x="-11.289" y="10" font-family="Roboto-Bold" font-size="40" fill="#294270">d</tspan>
    </text>
    <text transform="matrix(1, 0, 0, 1, 925.612, 532)">
      <tspan x="-10.586" y="10" font-family="Roboto-Bold" font-size="40" fill="#294270">e</tspan>
    </text>
    <text transform="matrix(1, 0, 0, 1, 1025.612, 532)">
      <tspan x="-7.148" y="10" font-family="Roboto-Bold" font-size="40" fill="#294270">f</tspan>
    </text>
    <text transform="matrix(1, 0, 0, 1, 980.245, 532)">
      <tspan x="-11.289" y="10" font-family="Roboto-Bold" font-size="40" fill="#294270">g</tspan>
    </text>
    <text transform="matrix(1, 0, 0, 1, 1075.612, 532)">
      <tspan x="-11.289" y="10" font-family="Roboto-Bold" font-size="40" fill="#294270">h</tspan>
    </text>
    <text transform="matrix(1, 0, 0, 1, 677.476, 475)">
      <tspan x="-11.475" y="15" font-family="Roboto-Bold" font-size="40" fill="#294270">1</tspan>
    </text>
    <text transform="matrix(1, 0, 0, 1, 677.476, 425)">
      <tspan x="-11.475" y="15" font-family="Roboto-Bold" font-size="40" fill="#294270">2</tspan>
    </text>
    <text transform="matrix(1, 0, 0, 1, 677.476, 375)">
      <tspan x="-11.475" y="15" font-family="Roboto-Bold" font-size="40" fill="#294270">3</tspan>
    </text>
    <text transform="matrix(1, 0, 0, 1, 677.476, 325)">
      <tspan x="-11.475" y="15" font-family="Roboto-Bold" font-size="40" fill="#294270">4</tspan>
    </text>
    <text transform="matrix(1, 0, 0, 1, 677.476, 275)">
      <tspan x="-11.475" y="15" font-family="Roboto-Bold" font-size="40" fill="#294270">5</tspan>
    </text>
    <text transform="matrix(1, 0, 0, 1, 677.476, 225)">
      <tspan x="-11.475" y="15" font-family="Roboto-Bold" font-size="40" fill="#294270">6</tspan>
    </text>
    <text transform="matrix(1, 0, 0, 1, 677.476, 175)">
      <tspan x="-11.475" y="15" font-family="Roboto-Bold" font-size="40" fill="#294270">7</tspan>
    </text>
    <text transform="matrix(1, 0, 0, 1, 677.476, 125)">
      <tspan x="-11.475" y="15" font-family="Roboto-Bold" font-size="40" fill="#294270">8</tspan>
    </text>
    <text transform="matrix(1, 0, 0, 1, 775.612, 425)">
      <tspan x="-20" y="15.5" font-family="ArialUnicodeMS" font-size="40" fill="#294270">♛</tspan>
    </text>
    <text transform="matrix(1, 0, 0, 1, 825.941, 325)">
      <tspan x="-20" y="15.5" font-family="ArialUnicodeMS" font-size="40" fill="#294270">♛</tspan>
    </text>
    <text transform="matrix(1, 0, 0, 1, 925.612, 125)">
      <tspan x="-20" y="15.5" font-family="ArialUnicodeMS" font-size="40" fill="#294270">♛</tspan>
    </text>
    <text transform="matrix(1, 0, 0, 1, 875.941, 225)">
      <tspan x="-20" y="15.5" font-family="ArialUnicodeMS" font-size="40" fill="#294270">♛</tspan>
    </text>
    <text transform="matrix(1, 0, 0, 1, 301.062, 604.59)">
      <tspan x="-65.283" y="-11.5" font-family="Roboto-Bold" font-size="40" fill="#294270">placed:</tspan>
      <tspan x="-181.582" y="41.5" font-family="Roboto-Bold" font-size="40" fill="#294270">{"b1", "c4", "d6", "e8"}</tspan>
    </text>
    <text transform="matrix(1, 0, 0, 1, 301.062, 738.09)">
      <tspan x="-93.34" y="-38" font-family="Roboto-Bold" font-size="40" fill="#294270">supposed:</tspan>
      <tspan x="-180.137" y="15" font-family="Roboto-Bold" font-size="40" fill="#294270">{"b1", "c4", "d6", "e8",</tspan>
      <tspan x="-172.939" y="68" font-family="Roboto-Bold" font-size="40" fill="#294270">"a5", "g3", "f1", "h7"}</tspan>
    </text>
    <text transform="matrix(1, 0, 0, 1, 975.94, 275)">
      <tspan x="-20" y="15.5" font-family="ArialUnicodeMS" font-size="40" fill="#294270">♛</tspan>
    </text>
    <text transform="matrix(1, 0, 0, 1, 725.94, 175)">
      <tspan x="-20" y="15.5" font-family="ArialUnicodeMS" font-size="40" fill="#294270">♛</tspan>
    </text>
    <g>
      <text transform="matrix(1, 0, 0, 1, 900.94, 631.09)">
        <tspan x="-65.01" y="-38" font-family="Roboto-Regular" font-size="40" fill="#294270">placed:</tspan>
        <tspan x="-133.691" y="15" font-family="Roboto-Regular" font-size="40" fill="#294270">{"b1", "c4", "d6",</tspan>
        <tspan x="-128.848" y="68" font-family="Roboto-Regular" font-size="40" fill="#294270">"e8", "a7", "g5"}</tspan>
      </text>
      <path d="M856.732,583.324 Q856.732,587.895 854.544,590.697 Q852.357,593.5 848.509,593.5 Q846.556,593.5 845.081,592.846 Q843.607,592.191 842.571,590.883 L842.571,601.215 L838.724,601.215 L838.724,571.957 L841.673,571.957 L842.278,574.691 Q843.314,573.168 844.857,572.367 Q846.399,571.566 848.45,571.566 Q852.376,571.566 854.554,574.682 Q856.732,577.797 856.732,582.914 z M852.884,582.914 Q852.884,579.32 851.468,577.006 Q850.052,574.691 847.298,574.691 Q845.638,574.691 844.466,575.443 Q843.294,576.195 842.571,577.504 L842.571,587.719 Q843.294,589.027 844.466,589.76 Q845.638,590.492 847.337,590.492 Q850.071,590.492 851.478,588.49 Q852.884,586.488 852.884,583.324 z M865.618,593.09 L861.771,593.09 L861.771,562.621 L865.618,562.621 z M884.524,593.09 Q884.329,592.133 884.222,591.4 Q884.114,590.668 884.095,589.926 Q883.021,591.449 881.292,592.475 Q879.564,593.5 877.571,593.5 Q874.271,593.5 872.542,591.811 Q870.814,590.121 870.814,587.152 Q870.814,584.125 873.265,582.416 Q875.716,580.707 879.915,580.707 L884.095,580.707 L884.095,578.617 Q884.095,576.762 882.962,575.678 Q881.829,574.594 879.759,574.594 Q877.903,574.594 876.741,575.541 Q875.579,576.488 875.579,577.816 L871.907,577.816 L871.868,577.699 Q871.751,575.395 874.046,573.48 Q876.341,571.566 879.974,571.566 Q883.567,571.566 885.755,573.393 Q887.942,575.219 887.942,578.656 L887.942,588.832 Q887.942,589.965 888.06,591.02 Q888.177,592.074 888.489,593.09 z M878.138,590.277 Q880.228,590.277 881.907,589.203 Q883.587,588.129 884.095,586.742 L884.095,583.305 L879.778,583.305 Q877.454,583.305 876.058,584.477 Q874.661,585.648 874.661,587.23 Q874.661,588.637 875.54,589.457 Q876.419,590.277 878.138,590.277 z M902.122,590.492 Q904.036,590.492 905.491,589.311 Q906.946,588.129 906.946,586.41 L910.403,586.41 L910.442,586.527 Q910.54,589.262 908.011,591.381 Q905.482,593.5 902.122,593.5 Q897.513,593.5 895.071,590.492 Q892.63,587.484 892.63,582.934 L892.63,582.113 Q892.63,577.602 895.081,574.584 Q897.532,571.566 902.122,571.566 Q905.833,571.566 908.187,573.754 Q910.54,575.941 910.462,579.125 L910.423,579.242 L906.946,579.242 Q906.946,577.309 905.579,575.951 Q904.212,574.594 902.122,574.594 Q899.095,574.594 897.796,576.771 Q896.497,578.949 896.497,582.113 L896.497,582.934 Q896.497,586.176 897.786,588.334 Q899.075,590.492 902.122,590.492 z M923.528,593.5 Q919.114,593.5 916.507,590.561 Q913.899,587.621 913.899,582.934 L913.899,582.074 Q913.899,577.562 916.585,574.564 Q919.271,571.566 922.942,571.566 Q927.22,571.566 929.407,574.145 Q931.595,576.723 931.595,581.02 L931.595,583.422 L917.884,583.422 L917.825,583.52 Q917.884,586.566 919.368,588.529 Q920.853,590.492 923.528,590.492 Q925.482,590.492 926.956,589.936 Q928.431,589.379 929.505,588.402 L931.009,590.902 Q929.876,592.016 928.021,592.758 Q926.165,593.5 923.528,593.5 z M922.942,574.594 Q921.009,574.594 919.642,576.225 Q918.274,577.855 917.962,580.316 L918.001,580.414 L927.747,580.414 L927.747,579.906 Q927.747,577.641 926.536,576.117 Q925.325,574.594 922.942,574.594 z M935.032,582.914 Q935.032,577.816 937.21,574.691 Q939.388,571.566 943.314,571.566 Q945.169,571.566 946.605,572.25 Q948.04,572.934 949.056,574.242 L949.056,562.621 L952.903,562.621 L952.903,593.09 L949.759,593.09 L949.31,590.492 Q948.274,591.977 946.771,592.738 Q945.267,593.5 943.274,593.5 Q939.407,593.5 937.22,590.697 Q935.032,587.895 935.032,583.324 z M938.88,583.324 Q938.88,586.527 940.189,588.451 Q941.497,590.375 944.251,590.375 Q945.97,590.375 947.142,589.594 Q948.314,588.812 949.056,587.406 L949.056,577.543 Q948.314,576.234 947.132,575.463 Q945.95,574.691 944.29,574.691 Q941.517,574.691 940.198,576.977 Q938.88,579.262 938.88,582.914 z M962.845,593.09 L958.997,593.09 L958.997,589.145 L962.845,589.145 z M962.845,575.98 L958.997,575.98 L958.997,572.035 L962.845,572.035 z M779.573,653.199 Q775.765,652.125 774.163,649.781 Q772.562,647.438 772.562,644.117 L772.562,640.113 Q772.562,637.926 771.556,636.705 Q770.55,635.484 768.48,635.484 L768.48,632.613 Q770.55,632.613 771.556,631.412 Q772.562,630.211 772.562,628.004 L772.562,623.98 Q772.562,620.641 774.163,618.307 Q775.765,615.973 779.573,614.898 L780.355,617.184 Q778.206,617.867 777.308,619.635 Q776.409,621.402 776.409,623.98 L776.409,628.004 Q776.409,630.055 775.579,631.617 Q774.749,633.18 773.089,634.059 Q774.749,634.957 775.579,636.529 Q776.409,638.102 776.409,640.113 L776.409,644.117 Q776.409,646.695 777.308,648.443 Q778.206,650.191 780.355,650.895 z M786.273,620.895 L784.3,625.777 L782.405,625.777 L782.425,621.09 L782.425,615.621 L786.273,615.621 z M792.308,620.895 L790.335,625.777 L788.44,625.777 L788.46,620.934 L788.46,615.621 L792.308,615.621 z M814.73,636.324 Q814.73,640.895 812.532,643.697 Q810.335,646.5 806.487,646.5 Q804.398,646.5 802.855,645.689 Q801.312,644.879 800.296,643.297 L799.827,646.09 L796.683,646.09 L796.683,615.621 L800.53,615.621 L800.53,627.457 Q801.526,626.051 803.001,625.309 Q804.476,624.566 806.448,624.566 Q810.355,624.566 812.542,627.691 Q814.73,630.816 814.73,635.914 z M810.882,635.914 Q810.882,632.281 809.544,629.986 Q808.206,627.691 805.472,627.691 Q803.694,627.691 802.474,628.561 Q801.253,629.43 800.53,630.895 L800.53,640.055 Q801.273,641.617 802.474,642.496 Q803.675,643.375 805.511,643.375 Q808.226,643.375 809.554,641.441 Q810.882,639.508 810.882,636.324 z M829.925,646.09 L826.077,646.09 L826.077,621.402 L820.257,621.48 L820.257,618.707 L829.925,617.652 z M844.573,620.895 L842.601,625.777 L840.706,625.777 L840.726,621.09 L840.726,615.621 L844.573,615.621 z M850.608,620.895 L848.636,625.777 L846.741,625.777 L846.761,620.934 L846.761,615.621 L850.608,615.621 z M858.343,645.152 L855.413,651.129 L853.128,651.129 L854.495,644.957 L854.495,641.773 L858.343,641.773 z M875.452,620.895 L873.48,625.777 L871.585,625.777 L871.605,621.09 L871.605,615.621 L875.452,615.621 z M881.487,620.895 L879.515,625.777 L877.62,625.777 L877.64,620.934 L877.64,615.621 L881.487,615.621 z M893.304,643.492 Q895.218,643.492 896.673,642.311 Q898.128,641.129 898.128,639.41 L901.585,639.41 L901.624,639.527 Q901.722,642.262 899.192,644.381 Q896.663,646.5 893.304,646.5 Q888.694,646.5 886.253,643.492 Q883.812,640.484 883.812,635.934 L883.812,635.113 Q883.812,630.602 886.263,627.584 Q888.714,624.566 893.304,624.566 Q897.015,624.566 899.368,626.754 Q901.722,628.941 901.644,632.125 L901.605,632.242 L898.128,632.242 Q898.128,630.309 896.761,628.951 Q895.394,627.594 893.304,627.594 Q890.276,627.594 888.978,629.771 Q887.679,631.949 887.679,635.113 L887.679,635.934 Q887.679,639.176 888.968,641.334 Q890.257,643.492 893.304,643.492 z M920.823,636.52 L924.749,636.52 L924.749,639.527 L920.823,639.527 L920.823,646.09 L916.995,646.09 L916.995,639.527 L904.222,639.527 L904.222,637.359 L916.761,617.652 L920.823,617.652 z M908.323,636.52 L916.995,636.52 L916.995,623.18 L916.878,623.16 L916.507,624.137 z M931.097,620.895 L929.124,625.777 L927.23,625.777 L927.249,621.09 L927.249,615.621 L931.097,615.621 z M937.132,620.895 L935.159,625.777 L933.265,625.777 L933.284,620.934 L933.284,615.621 L937.132,615.621 z M944.866,645.152 L941.937,651.129 L939.651,651.129 L941.019,644.957 L941.019,641.773 L944.866,641.773 z M961.976,620.895 L960.003,625.777 L958.108,625.777 L958.128,621.09 L958.128,615.621 L961.976,615.621 z M968.011,620.895 L966.038,625.777 L964.144,625.777 L964.163,620.934 L964.163,615.621 L968.011,615.621 z M970.355,635.914 Q970.355,630.816 972.532,627.691 Q974.71,624.566 978.636,624.566 Q980.491,624.566 981.927,625.25 Q983.362,625.934 984.378,627.242 L984.378,615.621 L988.226,615.621 L988.226,646.09 L985.081,646.09 L984.632,643.492 Q983.597,644.977 982.093,645.738 Q980.589,646.5 978.597,646.5 Q974.73,646.5 972.542,643.697 Q970.355,640.895 970.355,636.324 z M974.202,636.324 Q974.202,639.527 975.511,641.451 Q976.819,643.375 979.573,643.375 Q981.292,643.375 982.464,642.594 Q983.636,641.812 984.378,640.406 L984.378,630.543 Q983.636,629.234 982.454,628.463 Q981.273,627.691 979.612,627.691 Q976.839,627.691 975.521,629.977 Q974.202,632.262 974.202,635.914 z M1004.358,617.242 Q1005.823,617.242 1007.259,617.574 Q1008.694,617.906 1009.632,618.414 L1008.812,621.363 Q1007.855,620.875 1006.81,620.572 Q1005.765,620.27 1004.358,620.27 Q1001.312,620.27 999.446,622.711 Q997.581,625.152 997.581,629.078 L997.581,629.527 Q998.831,628.434 1000.442,627.818 Q1002.054,627.203 1003.909,627.203 Q1007.718,627.203 1009.983,629.84 Q1012.249,632.477 1012.249,636.52 Q1012.249,640.934 1009.837,643.717 Q1007.425,646.5 1003.401,646.5 Q999.222,646.5 996.487,643.473 Q993.753,640.445 993.753,634.938 L993.753,629.508 Q993.753,624.039 996.8,620.641 Q999.847,617.242 1004.358,617.242 z M1003.05,630.074 Q1001.077,630.074 999.69,630.875 Q998.304,631.676 997.581,633.004 L997.581,635.309 Q997.581,639.234 999.241,641.363 Q1000.901,643.492 1003.401,643.492 Q1005.765,643.492 1007.083,641.49 Q1008.401,639.488 1008.401,636.52 Q1008.401,633.707 1006.985,631.891 Q1005.569,630.074 1003.05,630.074 z M1019.124,620.895 L1017.151,625.777 L1015.257,625.777 L1015.276,621.09 L1015.276,615.621 L1019.124,615.621 z M1025.159,620.895 L1023.187,625.777 L1021.292,625.777 L1021.312,620.934 L1021.312,615.621 L1025.159,615.621 z M1032.894,645.152 L1029.964,651.129 L1027.679,651.129 L1029.046,644.957 L1029.046,641.773 L1032.894,641.773 z M777.523,673.895 L775.55,678.777 L773.655,678.777 L773.675,674.09 L773.675,668.621 L777.523,668.621 z M783.558,673.895 L781.585,678.777 L779.69,678.777 L779.71,673.934 L779.71,668.621 L783.558,668.621 z M795.55,699.5 Q791.136,699.5 788.528,696.561 Q785.921,693.621 785.921,688.934 L785.921,688.074 Q785.921,683.562 788.607,680.564 Q791.292,677.566 794.964,677.566 Q799.241,677.566 801.429,680.145 Q803.616,682.723 803.616,687.02 L803.616,689.422 L789.905,689.422 L789.847,689.52 Q789.905,692.566 791.39,694.529 Q792.874,696.492 795.55,696.492 Q797.503,696.492 798.978,695.936 Q800.452,695.379 801.526,694.402 L803.03,696.902 Q801.898,698.016 800.042,698.758 Q798.187,699.5 795.55,699.5 z M794.964,680.594 Q793.03,680.594 791.663,682.225 Q790.296,683.855 789.983,686.316 L790.023,686.414 L799.769,686.414 L799.769,685.906 Q799.769,683.641 798.558,682.117 Q797.347,680.594 794.964,680.594 z M824.866,678.074 Q824.866,680.301 823.616,681.971 Q822.366,683.641 820.237,684.461 Q822.698,685.32 824.173,687.156 Q825.648,688.992 825.648,691.395 Q825.648,695.34 823.079,697.42 Q820.511,699.5 816.409,699.5 Q812.23,699.5 809.681,697.42 Q807.132,695.34 807.132,691.395 Q807.132,688.992 808.577,687.156 Q810.023,685.32 812.483,684.461 Q810.355,683.641 809.144,681.971 Q807.933,680.301 807.933,678.074 Q807.933,674.324 810.247,672.283 Q812.562,670.242 816.37,670.242 Q820.12,670.242 822.493,672.283 Q824.866,674.324 824.866,678.074 z M821.819,691.316 Q821.819,688.973 820.276,687.469 Q818.733,685.965 816.37,685.965 Q813.968,685.965 812.474,687.469 Q810.98,688.973 810.98,691.316 Q810.98,693.738 812.464,695.115 Q813.948,696.492 816.409,696.492 Q818.812,696.492 820.315,695.105 Q821.819,693.719 821.819,691.316 z M821.019,678.152 Q821.019,676.043 819.7,674.656 Q818.382,673.27 816.37,673.27 Q814.319,673.27 813.05,674.607 Q811.78,675.945 811.78,678.152 Q811.78,680.32 813.06,681.629 Q814.339,682.938 816.409,682.938 Q818.44,682.938 819.73,681.629 Q821.019,680.32 821.019,678.152 z M833.089,673.895 L831.116,678.777 L829.222,678.777 L829.241,674.09 L829.241,668.621 L833.089,668.621 z M839.124,673.895 L837.151,678.777 L835.257,678.777 L835.276,673.934 L835.276,668.621 L839.124,668.621 z M846.858,698.152 L843.929,704.129 L841.644,704.129 L843.011,697.957 L843.011,694.773 L846.858,694.773 z M863.968,673.895 L861.995,678.777 L860.101,678.777 L860.12,674.09 L860.12,668.621 L863.968,668.621 z M870.003,673.895 L868.03,678.777 L866.136,678.777 L866.155,673.934 L866.155,668.621 L870.003,668.621 z M886.39,699.09 Q886.194,698.133 886.087,697.4 Q885.98,696.668 885.96,695.926 Q884.886,697.449 883.157,698.475 Q881.429,699.5 879.437,699.5 Q876.136,699.5 874.407,697.811 Q872.679,696.121 872.679,693.152 Q872.679,690.125 875.13,688.416 Q877.581,686.707 881.78,686.707 L885.96,686.707 L885.96,684.617 Q885.96,682.762 884.827,681.678 Q883.694,680.594 881.624,680.594 Q879.769,680.594 878.607,681.541 Q877.444,682.488 877.444,683.816 L873.773,683.816 L873.733,683.699 Q873.616,681.395 875.911,679.48 Q878.206,677.566 881.839,677.566 Q885.433,677.566 887.62,679.393 Q889.808,681.219 889.808,684.656 L889.808,694.832 Q889.808,695.965 889.925,697.02 Q890.042,698.074 890.355,699.09 z M880.003,696.277 Q882.093,696.277 883.773,695.203 Q885.452,694.129 885.96,692.742 L885.96,689.305 L881.644,689.305 Q879.319,689.305 877.923,690.477 Q876.526,691.648 876.526,693.23 Q876.526,694.637 877.405,695.457 Q878.284,696.277 880.003,696.277 z M913.343,673.68 Q908.187,679.812 906.38,684.549 Q904.573,689.285 903.773,696.023 L903.46,699.09 L899.612,699.09 L899.925,696.023 Q900.745,689.305 903.108,684.012 Q905.472,678.719 909.573,673.68 L894.105,673.68 L894.105,670.652 L913.343,670.652 z M920.55,673.895 L918.577,678.777 L916.683,678.777 L916.702,674.09 L916.702,668.621 L920.55,668.621 z M926.585,673.895 L924.612,678.777 L922.718,678.777 L922.737,673.934 L922.737,668.621 L926.585,668.621 z M934.319,698.152 L931.39,704.129 L929.105,704.129 L930.472,697.957 L930.472,694.773 L934.319,694.773 z M951.429,673.895 L949.456,678.777 L947.562,678.777 L947.581,674.09 L947.581,668.621 L951.429,668.621 z M957.464,673.895 L955.491,678.777 L953.597,678.777 L953.616,673.934 L953.616,668.621 L957.464,668.621 z M959.847,688.914 Q959.847,683.816 962.073,680.691 Q964.3,677.566 968.226,677.566 Q970.237,677.566 971.761,678.377 Q973.284,679.188 974.3,680.711 L974.769,677.957 L977.835,677.957 L977.835,699.207 Q977.835,703.27 975.472,705.447 Q973.108,707.625 968.655,707.625 Q967.132,707.625 965.364,707.205 Q963.597,706.785 962.249,706.062 L963.226,703.074 Q964.261,703.66 965.726,704.021 Q967.19,704.383 968.616,704.383 Q971.429,704.383 972.708,703.104 Q973.987,701.824 973.987,699.207 L973.987,696.824 Q972.952,698.152 971.507,698.826 Q970.062,699.5 968.187,699.5 Q964.3,699.5 962.073,696.688 Q959.847,693.875 959.847,689.324 z M963.694,689.324 Q963.694,692.508 965.042,694.441 Q966.39,696.375 969.144,696.375 Q970.882,696.375 972.054,695.584 Q973.226,694.793 973.987,693.348 L973.987,683.621 Q973.245,682.273 972.054,681.482 Q970.862,680.691 969.183,680.691 Q966.429,680.691 965.062,682.996 Q963.694,685.301 963.694,688.914 z M984.046,686.258 L985.687,670.652 L999.925,670.652 L999.925,674.07 L988.948,674.07 L988.011,682.059 Q988.909,681.395 990.013,680.955 Q991.116,680.516 992.562,680.477 Q996.487,680.438 998.743,683.035 Q1000.999,685.633 1000.999,690.027 Q1000.999,694.305 998.704,696.902 Q996.409,699.5 992.015,699.5 Q988.401,699.5 985.999,697.527 Q983.597,695.555 983.694,691.727 L983.733,691.609 L987.21,691.609 Q987.21,693.934 988.548,695.213 Q989.886,696.492 992.015,696.492 Q994.456,696.492 995.804,694.773 Q997.151,693.055 997.151,690.066 Q997.151,687.332 995.784,685.574 Q994.417,683.816 992.015,683.816 Q989.749,683.816 988.733,684.5 Q987.718,685.184 987.249,686.59 z M1008.577,673.895 L1006.605,678.777 L1004.71,678.777 L1004.73,674.09 L1004.73,668.621 L1008.577,668.621 z M1014.612,673.895 L1012.64,678.777 L1010.745,678.777 L1010.765,673.934 L1010.765,668.621 L1014.612,668.621 z M1016.605,703.895 Q1018.733,703.191 1019.651,701.443 Q1020.569,699.695 1020.569,697.117 L1020.569,693.113 Q1020.569,691.023 1021.448,689.461 Q1022.327,687.898 1024.163,687.059 Q1022.327,686.258 1021.448,684.695 Q1020.569,683.133 1020.569,681.004 L1020.569,676.98 Q1020.569,674.402 1019.651,672.635 Q1018.733,670.867 1016.605,670.184 L1017.405,667.898 Q1021.194,668.973 1022.806,671.307 Q1024.417,673.641 1024.417,676.98 L1024.417,681.004 Q1024.417,683.211 1025.403,684.412 Q1026.39,685.613 1028.499,685.613 L1028.499,688.484 Q1026.39,688.484 1025.403,689.705 Q1024.417,690.926 1024.417,693.113 L1024.417,697.117 Q1024.417,700.438 1022.806,702.781 Q1021.194,705.125 1017.405,706.199 z" fill-opacity="0" stroke="#000000" stroke-width="1"/>
    </g>
    <g>
      <text transform="matrix(1, 0, 0, 1, 900.94, 791.09)">
        <tspan x="-133.857" y="-38" font-family="Roboto-Regular" font-size="40" fill="#294270">It's impossible:</tspan>
        <tspan x="-13.594" y="15" font-family="Roboto-Regular" font-size="40" fill="#294270">{}</tspan>
      </text>
      <path d="M774.661,753.09 L770.794,753.09 L770.794,724.652 L774.661,724.652 z M786.263,726.859 L786.263,731.957 L790.267,731.957 L790.267,734.809 L786.263,734.809 L786.263,747.641 Q786.263,749.125 786.878,749.731 Q787.493,750.336 788.509,750.336 Q788.841,750.336 789.241,750.258 Q789.642,750.18 789.954,750.063 L790.462,752.699 Q790.032,753.051 789.202,753.275 Q788.372,753.5 787.532,753.5 Q785.189,753.5 783.802,752.084 Q782.415,750.668 782.415,747.641 L782.415,734.809 L779.056,734.809 L779.056,731.957 L782.415,731.957 L782.415,726.859 z M797.649,726.977 L795.677,732.484 L793.782,732.484 L793.802,727.309 L793.802,722.621 L797.649,722.621 z M812.532,747.484 Q812.532,746.215 811.565,745.395 Q810.599,744.574 807.903,743.969 Q804.056,743.129 802.112,741.693 Q800.169,740.258 800.169,737.777 Q800.169,735.199 802.357,733.383 Q804.544,731.566 808.06,731.566 Q811.751,731.566 813.929,733.461 Q816.107,735.356 816.009,738.07 L815.97,738.188 L812.298,738.188 Q812.298,736.801 811.136,735.697 Q809.974,734.594 808.06,734.594 Q806.009,734.594 805.013,735.492 Q804.017,736.391 804.017,737.66 Q804.017,738.91 804.896,739.633 Q805.774,740.356 808.47,740.922 Q812.474,741.781 814.427,743.256 Q816.38,744.731 816.38,747.211 Q816.38,750.023 814.105,751.762 Q811.829,753.5 808.157,753.5 Q804.114,753.5 801.79,751.449 Q799.466,749.398 799.583,746.664 L799.622,746.547 L803.294,746.547 Q803.392,748.598 804.817,749.545 Q806.243,750.492 808.157,750.492 Q810.208,750.492 811.37,749.662 Q812.532,748.832 812.532,747.484 z M835.267,753.09 L831.419,753.09 L831.419,731.957 L835.267,731.957 z M835.267,726.547 L831.419,726.547 L831.419,722.621 L835.267,722.621 z M844.622,731.957 L844.896,734.731 Q845.931,733.227 847.523,732.397 Q849.114,731.566 851.224,731.566 Q853.333,731.566 854.847,732.543 Q856.36,733.52 857.122,735.473 Q858.118,733.676 859.759,732.621 Q861.399,731.566 863.587,731.566 Q866.81,731.566 868.685,733.783 Q870.56,736 870.56,740.453 L870.56,753.09 L866.712,753.09 L866.712,740.414 Q866.712,737.289 865.638,735.99 Q864.564,734.691 862.435,734.691 Q860.462,734.691 859.241,736.059 Q858.021,737.426 857.806,739.516 L857.806,739.672 L857.806,753.09 L853.939,753.09 L853.939,740.414 Q853.939,737.445 852.835,736.068 Q851.732,734.691 849.661,734.691 Q847.903,734.691 846.771,735.414 Q845.638,736.137 845.032,737.445 L845.032,753.09 L841.185,753.09 L841.185,731.957 z M894.153,743.324 Q894.153,747.895 891.966,750.697 Q889.778,753.5 885.931,753.5 Q883.978,753.5 882.503,752.846 Q881.028,752.191 879.993,750.883 L879.993,761.215 L876.146,761.215 L876.146,731.957 L879.095,731.957 L879.7,734.691 Q880.735,733.168 882.278,732.367 Q883.821,731.566 885.872,731.566 Q889.798,731.566 891.976,734.682 Q894.153,737.797 894.153,742.914 z M890.306,742.914 Q890.306,739.32 888.89,737.006 Q887.474,734.691 884.72,734.691 Q883.06,734.691 881.888,735.443 Q880.716,736.195 879.993,737.504 L879.993,747.719 Q880.716,749.027 881.888,749.76 Q883.06,750.492 884.759,750.492 Q887.493,750.492 888.899,748.49 Q890.306,746.488 890.306,743.324 z M897.982,742.328 Q897.982,737.641 900.521,734.604 Q903.06,731.566 907.415,731.566 Q911.81,731.566 914.358,734.594 Q916.907,737.621 916.907,742.328 L916.907,742.758 Q916.907,747.484 914.368,750.492 Q911.829,753.5 907.454,753.5 Q903.079,753.5 900.53,750.482 Q897.982,747.465 897.982,742.758 z M901.829,742.758 Q901.829,746.117 903.245,748.305 Q904.661,750.492 907.454,750.492 Q910.208,750.492 911.634,748.305 Q913.06,746.117 913.06,742.758 L913.06,742.328 Q913.06,739.008 911.624,736.801 Q910.189,734.594 907.415,734.594 Q904.661,734.594 903.245,736.801 Q901.829,739.008 901.829,742.328 z M933.899,747.484 Q933.899,746.215 932.933,745.395 Q931.966,744.574 929.271,743.969 Q925.423,743.129 923.48,741.693 Q921.536,740.258 921.536,737.777 Q921.536,735.199 923.724,733.383 Q925.911,731.566 929.427,731.566 Q933.118,731.566 935.296,733.461 Q937.474,735.356 937.376,738.07 L937.337,738.188 L933.665,738.188 Q933.665,736.801 932.503,735.697 Q931.341,734.594 929.427,734.594 Q927.376,734.594 926.38,735.492 Q925.384,736.391 925.384,737.66 Q925.384,738.91 926.263,739.633 Q927.142,740.356 929.837,740.922 Q933.841,741.781 935.794,743.256 Q937.747,744.731 937.747,747.211 Q937.747,750.023 935.472,751.762 Q933.196,753.5 929.524,753.5 Q925.482,753.5 923.157,751.449 Q920.833,749.398 920.95,746.664 L920.989,746.547 L924.661,746.547 Q924.759,748.598 926.185,749.545 Q927.61,750.492 929.524,750.492 Q931.575,750.492 932.737,749.662 Q933.899,748.832 933.899,747.484 z M954.817,747.484 Q954.817,746.215 953.851,745.395 Q952.884,744.574 950.189,743.969 Q946.341,743.129 944.398,741.693 Q942.454,740.258 942.454,737.777 Q942.454,735.199 944.642,733.383 Q946.829,731.566 950.345,731.566 Q954.036,731.566 956.214,733.461 Q958.392,735.356 958.294,738.07 L958.255,738.188 L954.583,738.188 Q954.583,736.801 953.421,735.697 Q952.259,734.594 950.345,734.594 Q948.294,734.594 947.298,735.492 Q946.302,736.391 946.302,737.66 Q946.302,738.91 947.181,739.633 Q948.06,740.356 950.755,740.922 Q954.759,741.781 956.712,743.256 Q958.665,744.731 958.665,747.211 Q958.665,750.023 956.39,751.762 Q954.114,753.5 950.442,753.5 Q946.399,753.5 944.075,751.449 Q941.751,749.398 941.868,746.664 L941.907,746.547 L945.579,746.547 Q945.677,748.598 947.103,749.545 Q948.528,750.492 950.442,750.492 Q952.493,750.492 953.655,749.662 Q954.817,748.832 954.817,747.484 z M967.61,753.09 L963.763,753.09 L963.763,731.957 L967.61,731.957 z M967.61,726.547 L963.763,726.547 L963.763,722.621 L967.61,722.621 z M991.575,743.324 Q991.575,747.895 989.378,750.697 Q987.181,753.5 983.333,753.5 Q981.243,753.5 979.7,752.69 Q978.157,751.879 977.142,750.297 L976.673,753.09 L973.528,753.09 L973.528,722.621 L977.376,722.621 L977.376,734.457 Q978.372,733.051 979.847,732.309 Q981.321,731.566 983.294,731.566 Q987.2,731.566 989.388,734.691 Q991.575,737.816 991.575,742.914 z M987.728,742.914 Q987.728,739.281 986.39,736.986 Q985.052,734.691 982.317,734.691 Q980.54,734.691 979.319,735.561 Q978.099,736.43 977.376,737.895 L977.376,747.055 Q978.118,748.617 979.319,749.496 Q980.521,750.375 982.357,750.375 Q985.071,750.375 986.399,748.441 Q987.728,746.508 987.728,743.324 z M1000.423,753.09 L996.575,753.09 L996.575,722.621 L1000.423,722.621 z M1015.11,753.5 Q1010.696,753.5 1008.089,750.561 Q1005.482,747.621 1005.482,742.934 L1005.482,742.074 Q1005.482,737.563 1008.167,734.565 Q1010.853,731.566 1014.524,731.566 Q1018.802,731.566 1020.989,734.145 Q1023.177,736.723 1023.177,741.02 L1023.177,743.422 L1009.466,743.422 L1009.407,743.52 Q1009.466,746.566 1010.95,748.529 Q1012.435,750.492 1015.11,750.492 Q1017.064,750.492 1018.538,749.936 Q1020.013,749.379 1021.087,748.402 L1022.591,750.902 Q1021.458,752.016 1019.603,752.758 Q1017.747,753.5 1015.11,753.5 z M1014.524,734.594 Q1012.591,734.594 1011.224,736.225 Q1009.857,737.856 1009.544,740.316 L1009.583,740.414 L1019.329,740.414 L1019.329,739.906 Q1019.329,737.641 1018.118,736.117 Q1016.907,734.594 1014.524,734.594 z M1031.693,753.09 L1027.845,753.09 L1027.845,749.145 L1031.693,749.145 z M1031.693,735.981 L1027.845,735.981 L1027.845,732.035 L1031.693,732.035 z M899.671,813.199 Q895.862,812.125 894.261,809.781 Q892.659,807.438 892.659,804.117 L892.659,800.113 Q892.659,797.926 891.653,796.705 Q890.648,795.484 888.577,795.484 L888.577,792.613 Q890.648,792.613 891.653,791.412 Q892.659,790.211 892.659,788.004 L892.659,783.981 Q892.659,780.641 894.261,778.307 Q895.862,775.973 899.671,774.898 L900.452,777.184 Q898.304,777.867 897.405,779.635 Q896.507,781.402 896.507,783.981 L896.507,788.004 Q896.507,790.055 895.677,791.617 Q894.847,793.18 893.187,794.059 Q894.847,794.957 895.677,796.529 Q896.507,798.102 896.507,800.113 L896.507,804.117 Q896.507,806.695 897.405,808.443 Q898.304,810.191 900.452,810.895 z M901.351,810.895 Q903.48,810.191 904.398,808.443 Q905.315,806.695 905.315,804.117 L905.315,800.113 Q905.315,798.023 906.194,796.461 Q907.073,794.898 908.909,794.059 Q907.073,793.258 906.194,791.695 Q905.315,790.133 905.315,788.004 L905.315,783.981 Q905.315,781.402 904.398,779.635 Q903.48,777.867 901.351,777.184 L902.151,774.898 Q905.94,775.973 907.552,778.307 Q909.163,780.641 909.163,783.981 L909.163,788.004 Q909.163,790.211 910.149,791.412 Q911.136,792.613 913.245,792.613 L913.245,795.484 Q911.136,795.484 910.149,796.705 Q909.163,797.926 909.163,800.113 L909.163,804.117 Q909.163,807.438 907.552,809.781 Q905.94,812.125 902.151,813.199 z" fill-opacity="0" stroke="#000000" stroke-width="1"/>
    </g>
  </g>
</svg>
